<?xml version="1.0" encoding="UTF-8"?>
<svg id="Layer_1" data-name="Layer 1" xmlns="http://www.w3.org/2000/svg" viewBox="0 0 1440 1440">
  <defs>
    <style>
      .cls-1 {
        fill: #fff;
      }

      .cls-1, .cls-2 {
        stroke-width: 0px;
      }

      .cls-2 {
        fill: #ff474f;
      }
    </style>
  </defs>
  <g>
    <path class="cls-1" d="m580.46,665.42h70.62v18.67h-44.47v14.59h41.56v18.74h-41.56v28.99h-26.15v-80.99Z"/>
    <path class="cls-1" d="m732.92,714.19h-43.27v13.52h48.38l-3.03,18.7h-71.3v-80.99h71.51v18.74h-45.57v11.29h43.27v18.74Z"/>
    <path class="cls-1" d="m776.54,716.62v29.79h-25.84v-80.99h48.97c20.12,0,30.64,9.84,30.64,23.25,0,10.43-6.05,16.66-13.97,19.4,4.37,1.87,11.82,5.76,11.82,19.49v4.39c0,4.6,0,10.5,1.12,14.46h-26.2c-1.34-3.41-1.65-8.38-1.65-16.76v-2.73c0-7.53-2.41-10.3-12.6-10.3h-12.29Zm0-16.82h16.11c7.17,0,11.18-2.62,11.18-8.47,0-5.39-3.68-8.44-11.18-8.44h-16.1v16.91Z"/>
    <path class="cls-1" d="m927.99,746.41h-18.1c-.58-1.73-1.16-4.6-1.54-7.36-5.19,5.77-12.03,9.21-26.91,9.21-26.73,0-41.41-17.94-41.41-41.6s14.62-43.08,46.49-43.08c25.72,0,39.22,13.01,41.54,26.62h-26.38c-1.23-3.74-4.72-9.28-15.2-9.28-13.75,0-18.7,11.24-18.7,24.38,0,14.31,5.62,25.26,19.21,25.26,11.51,0,15.63-6.55,15.63-12.82v-.83h-15.84v-17.68h41.22v47.19Z"/>
    <path class="cls-1" d="m968.35,731.31l-5.12,15.1h-26.4l30.63-80.99h34.31l32.64,80.99h-28.28l-5.5-15.1h-32.28Zm26.16-18.74c-5.28-14.58-8.33-23.79-10.37-30.57h-.4c-1.76,6.7-5.35,18.19-9.65,30.57h20.42Z"/>
    <path class="cls-1" d="m1043.08,746.41v-80.99h30.67c17.94,29.01,24,39.53,29.22,49.96h.43c-.73-7.62-.69-22.26-.69-35.66v-14.29h23.7v80.99h-28.98c-6.31-11.25-26.22-45.73-31.03-55.59h-.39c.77,9.26.81,20,.81,35.89v19.7h-23.74Z"/>
    <path class="cls-1" d="m1167.19,731.31l-5.12,15.1h-26.4l30.63-80.99h34.31l32.64,80.99h-28.28l-5.5-15.1h-32.28Zm26.16-18.74c-5.28-14.58-8.33-23.79-10.37-30.57h-.4c-1.76,6.7-5.35,18.19-9.65,30.57h20.42Z"/>
    <path class="cls-1" d="m656.55,822.11c0-12.85.24-28.41.82-37.91h-.24c-3.91,15.67-9.08,36.58-17.16,65.21h-21.63c-6.37-26.63-11.61-49-15.59-65.37h-.2c.5,9.44,1.42,25.07,1.42,38.97v26.4h-23.52v-80.99h37.69c5.22,18.24,10.35,38.14,12.65,51.78h.16c3.1-14.33,8.28-33.25,13.71-51.78h37.56v80.99h-25.67v-27.3Z"/>
    <path class="cls-1" d="m770.46,817.19h-43.27v13.52h48.38l-3.03,18.7h-71.3v-80.99h71.51v18.74h-45.57v11.29h43.27v18.74Z"/>
    <path class="cls-1" d="m788.17,768.42h41.03c29.22,0,44.03,17.89,44.03,39.19,0,25.02-18.3,41.79-44.29,41.79h-40.77v-80.99Zm26.35,62.78h11.37c13.05,0,19.56-7.86,19.56-22.97,0-12.42-5.17-21.53-19.53-21.68h-11.4v44.65Z"/>
    <path class="cls-1" d="m913.88,768.42v80.99h-26.35v-80.99h26.35Z"/>
    <path class="cls-1" d="m954.65,834.31l-5.12,15.1h-26.4l30.63-80.99h34.31l32.64,80.99h-28.28l-5.5-15.1h-32.28Zm26.16-18.74c-5.28-14.58-8.33-23.79-10.37-30.57h-.4c-1.76,6.7-5.35,18.19-9.65,30.57h20.42Z"/>
  </g>
  <g>
    <rect class="cls-2" x="471.89" y="665.11" width="51.58" height="184"/>
    <rect class="cls-2" x="399.03" y="731.05" width="51.58" height="51.58"/>
    <path class="cls-2" d="m399.03,665.11v51.58h-36.69v132.42h-51.58v-132.42c0-2.54.19-5.04.54-7.48,3.62-24.95,25.1-44.11,51.04-44.11h36.69Z"/>
  </g>
</svg>